<svg xmlns="http://www.w3.org/2000/svg" xmlns:svg="http://www.w3.org/2000/svg" width="210mm" height="297mm" viewBox="0 0 210 297" version="1.1" id="svg5" xml:space="preserve"><defs id="defs2"/><g id="layer1"><path id="wave1" style="fill:#ffcc00;fill-opacity:1;stroke-width:0.264583" d="m 210,57.73663 c 0,0 -17.24502,6.52909 -26.28148,6.660168 -10.20927,0.148091 -19.69244,-6.354174 -29.8982,-6.660168 -13.99474,-0.419597 -27.4714,6.803879 -41.47169,6.660168 C 99.932742,64.269352 88.115602,57.804035 75.699229,57.73663 62.493089,57.66494 49.850189,64.468661 36.644049,64.396798 24.229439,64.329248 -2e-6,57.73663 -2e-6,57.73663 V 69.330198 H 210 Z m -66.78872,11.324781" clip-path="none" mask="none"/><path id="wave2" style="fill:#c06219;fill-opacity:1;stroke-width:0.264583" d="m 0,61.722871 c 0,0 17.24502,6.52909 26.28148,6.660168 10.20927,0.148091 19.69244,-6.354174 29.8982,-6.660168 13.99474,-0.419597 27.4714,6.803879 41.471692,6.660168 12.415888,-0.127446 24.233028,-6.592763 36.649398,-6.660168 13.20614,-0.07169 25.84904,6.732031 39.05518,6.660168 C 185.77056,68.315489 210,61.722871 210,61.722871 V 73.316439 H 0 Z m 66.78872,11.324781" clip-path="none" mask="none"/><path id="wave3" style="fill:#773d04;fill-opacity:1;stroke-width:0.264583" d="m 210,63.542214 c 0,0 -17.24502,6.52909 -26.28148,6.660168 -10.20927,0.148091 -19.69244,-6.354174 -29.8982,-6.660168 -13.99474,-0.419597 -27.4714,6.803879 -41.47169,6.660168 C 99.93274,70.074936 88.1156,63.609619 75.69923,63.542214 62.49309,63.470524 49.85019,70.274245 36.64405,70.202382 24.22944,70.134832 -6.375e-7,63.542214 -6.375e-7,63.542214 V 75.135782 H 210 Z m -66.78872,11.324781" clip-path="none" mask="none"/><path id="wave4" style="fill:#a75913;stroke-width:0.264583" d="m 0,67.519655 c 0,0 17.245016,6.52909 26.281483,6.660168 10.209269,0.148091 19.692438,-6.354174 29.898195,-6.660168 13.994739,-0.419597 27.471401,6.803879 41.471691,6.660168 12.415891,-0.127446 24.233031,-6.592763 36.649401,-6.660168 13.20614,-0.07169 25.84904,6.732031 39.05518,6.660168 C 185.77056,74.112268 210,67.519655 210,67.519655 V 79.113223 H 0 Z m 66.788716,11.324781" clip-path="none" mask="none"/></g></svg>