<?xml version="1.0" encoding="UTF-8" standalone="no"?>
<!-- Created with Inkscape (http://www.inkscape.org/) -->

<svg
   width="180"
   height="180"
   viewBox="0 0 180 180"
   version="1.1"
   id="svg5"
   xml:space="preserve"
   inkscape:version="1.2.2 (b0a8486541, 2022-12-01)"
   sodipodi:docname="rising-rock-logo.svg"
   inkscape:export-filename="../bitmap.svg"
   inkscape:export-xdpi="96"
   inkscape:export-ydpi="96"
   xmlns:inkscape="http://www.inkscape.org/namespaces/inkscape"
   xmlns:sodipodi="http://sodipodi.sourceforge.net/DTD/sodipodi-0.dtd"
   xmlns="http://www.w3.org/2000/svg"
   xmlns:svg="http://www.w3.org/2000/svg"><sodipodi:namedview
     id="namedview7"
     pagecolor="#fff2e2"
     bordercolor="#000000"
     borderopacity="0.25"
     inkscape:showpageshadow="2"
     inkscape:pageopacity="1"
     inkscape:pagecheckerboard="0"
     inkscape:deskcolor="#d1d1d1"
     inkscape:document-units="px"
     showgrid="true"
     inkscape:lockguides="true"
     inkscape:zoom="4.1967306"
     inkscape:cx="114.85131"
     inkscape:cy="59.689321"
     inkscape:window-width="1920"
     inkscape:window-height="1004"
     inkscape:window-x="1920"
     inkscape:window-y="0"
     inkscape:window-maximized="1"
     inkscape:current-layer="layer1"><inkscape:grid
       type="xygrid"
       id="grid390" /></sodipodi:namedview><defs
     id="defs2" /><g
     inkscape:label="Layer 1"
     inkscape:groupmode="layer"
     id="layer1"><g
       id="g340"><path
         style="fill:#c1631a;fill-opacity:1;stroke-width:0.733392"
         d="m 75.44899,61.307368 c -1.846322,-2.641202 -3.356961,-5.593339 -3.356961,-6.560304 0,-2.727074 2.88384,-21.695547 3.441469,-22.636227 0.273014,-0.460576 3.787707,-4.532504 7.810408,-9.048729 6.589346,-7.397767 7.447836,-8.11758 8.664817,-7.265175 1.524459,1.067775 8.242397,8.610402 9.784607,10.985762 0.55605,0.85644 2.0731,7.788459 3.37121,15.404486 2.64173,15.498909 2.68533,15.111895 -2.397,21.277637 l -2.18001,2.644735 H 89.696746 78.805961 Z"
         id="path12243" /><path
         style="fill:#a75913;fill-opacity:1;stroke-width:0.259294"
         d="m 80.306545,85.526103 c -2.439861,-0.500814 -4.062147,-1.313138 -4.058034,-2.031972 0.0098,-1.675886 6.252194,-3.690007 12.313226,-3.972759 5.90008,-0.275243 12.708793,1.1462 14.844543,3.099069 1.14942,1.051005 0.54842,1.75663 -2.26882,2.663787 -1.227998,0.395416 -2.650853,0.469391 -10.24209,0.532493 -6.787755,0.05642 -9.223829,-0.01045 -10.588825,-0.290618 z"
         id="path18775" /><path
         style="fill:#c06219;fill-opacity:1;stroke-width:0.259294"
         d="m 78.34653,65.544033 c -0.974676,-0.820135 -5.943716,-7.924951 -6.45761,-9.233188 -0.33934,-0.863877 -0.309349,-1.412031 0.319197,-5.834339 1.838497,-12.935233 2.570464,-17.378146 3.004138,-18.234488 0.692793,-1.367987 8.346012,-10.148226 13.178224,-15.118855 1.919154,-1.974127 2.309866,-2.263174 2.881152,-2.131453 0.363922,0.08391 1.7113,1.226695 2.998404,2.54313 2.742398,2.804867 7.840395,8.794358 8.343105,9.802067 0.34614,0.693856 5.00665,27.11346 5.00665,28.381819 0,0.362022 -0.23774,1.124213 -0.52829,1.693753 -0.96504,1.891638 -3.78163,6.055115 -5.03022,7.435667 l -1.23117,1.36129 H 89.983711 79.137313 Z"
         id="path19329" /><path
         style="fill:#773d04;fill-opacity:1;stroke-width:0.259294"
         d="m 52.325504,80.062964 c -1.379654,-0.748473 -0.743034,-1.45974 3.176333,-3.548797 5.806071,-3.094678 13.527944,-5.337335 22.558522,-6.551649 4.125208,-0.554704 14.783241,-0.778295 19.42181,-0.407443 10.580721,0.845925 18.908101,2.91836 26.161891,6.510907 5.05349,2.502822 5.72028,3.128707 4.31445,4.049839 -0.5852,0.38344 -1.20538,0.414667 -5.22421,0.263053 l -4.56019,-0.172037 -3.00834,-1.128867 C 100.56211,73.598023 78.412234,73.749272 64.469398,79.424146 l -2.570987,1.04642 -4.429932,-0.01034 c -3.42014,-0.0081 -4.592463,-0.09856 -5.142975,-0.397221 z"
         id="path20573" /><path
         style="fill:#ffffff;fill-opacity:1;stroke-width:0.0916741"
         d="m 43.555971,115.24162 -0.203752,-0.14271 v -11.34403 c 0,-8.700921 0.02568,-11.369683 0.110015,-11.45406 0.178332,-0.178338 8.580016,-0.152839 9.620657,0.0292 1.263088,0.220948 2.163332,0.695855 3.072466,1.620809 1.365758,1.389525 2.04806,3.187635 2.04806,5.397398 0,2.650723 -0.841699,4.466793 -2.588104,5.584153 -0.689604,0.44121 -0.707265,0.46163 -0.652867,0.75442 0.09892,0.53226 1.037812,2.99489 1.920362,5.03679 0.472032,1.09211 1.023916,2.4122 1.226416,2.93357 0.679669,1.74986 0.708135,1.72717 -2.16775,1.72717 -1.982519,0 -2.215564,-0.016 -2.341293,-0.16043 -0.128547,-0.1477 -0.729714,-1.64667 -2.656344,-6.62345 -0.400147,-1.03362 -0.814647,-1.97213 -0.921126,-2.08558 -0.165676,-0.17653 -0.287118,-0.20608 -0.842244,-0.20502 -0.356761,7.3e-4 -0.741477,0.0261 -0.854931,0.0565 l -0.206266,0.0553 v 4.13958 4.1396 l -0.281698,0.34174 -0.281687,0.34174 h -1.898087 c -1.569542,0 -1.933344,-0.0247 -2.101827,-0.1427 z m 8.51233,-12.87071 c 0.28184,-0.14022 0.498769,-0.33985 0.660821,-0.60814 0.223165,-0.36947 0.246028,-0.50659 0.30504,-1.829306 0.05996,-1.344428 0.05082,-1.471123 -0.152465,-2.119458 -0.279468,-0.891097 -0.814996,-1.420239 -1.626085,-1.606683 -0.640711,-0.147281 -2.947879,-0.139467 -3.040429,0.01034 -0.111996,0.1812 -0.26457,4.514667 -0.18423,5.232267 0.04233,0.37815 0.07955,0.77734 0.0827,0.8871 0.0033,0.10975 0.07791,0.22089 0.166101,0.24697 0.08825,0.0261 0.882364,0.0358 1.764729,0.0215 1.455653,-0.0235 1.643169,-0.0453 2.02387,-0.23462 z"
         id="path21817" /><path
         style="fill:#ffffff;fill-opacity:1;stroke-width:0.0916741"
         d="m 62.938835,115.21668 c -0.13944,-0.15407 -0.151715,-1.07634 -0.151715,-11.39301 0,-10.207946 0.01349,-11.244621 0.148787,-11.437795 l 0.148788,-0.212429 2.041857,0.0316 c 1.853374,0.02868 2.059661,0.04772 2.234728,0.206239 l 0.19288,0.174637 v 11.259338 11.25934 l -0.270468,0.13986 c -0.217713,0.11259 -0.653019,0.13987 -2.2318,0.13987 -1.783686,0 -1.975076,-0.0152 -2.113057,-0.16765 z"
         id="path21819" /><path
         style="fill:#ffffff;fill-opacity:1;stroke-width:0.0916741"
         d="m 76.89326,115.58876 c -1.587007,-0.37261 -1.951636,-0.63004 -3.156626,-2.22859 -1.185282,-1.5724 -1.480006,-2.2667 -1.592416,-3.7513 l -0.07291,-0.96258 0.239531,-0.2058 c 0.272242,-0.23393 0.572711,-0.24954 2.822836,-0.14659 l 1.29988,0.0595 0.258585,1.01636 c 0.305323,1.20007 0.767551,1.99006 1.358663,2.32204 0.326401,0.1833 0.495439,0.2061 1.538159,0.20745 1.112048,0.001 1.198058,-0.012 1.695967,-0.26408 0.36168,-0.18314 0.617012,-0.39742 0.82245,-0.69024 l 0.297945,-0.42465 v -1.19411 -1.19411 l -0.372018,-0.54782 c -0.588022,-0.86589 -1.23535,-1.23174 -3.478293,-1.96576 -1.073526,-0.35131 -2.294022,-0.82294 -2.846526,-1.09995 -2.33027,-1.16833 -3.478979,-3.02438 -3.478979,-5.621201 0,-1.984399 0.613225,-3.672538 1.813056,-4.991127 0.494264,-0.543183 0.758225,-0.741489 1.479843,-1.111761 0.753829,-0.386804 1.027638,-0.474363 1.932517,-0.617979 1.178514,-0.187047 2.792585,-0.219663 4.171401,-0.08429 0.813146,0.07983 1.025918,0.141716 1.879316,0.546591 0.865215,0.410483 1.047181,0.542767 1.802903,1.310679 0.648199,0.658659 0.893149,0.980929 1.070414,1.408268 0.363802,0.877055 0.610069,1.97746 0.610069,2.726 v 0.682732 l -0.348709,0.241653 c -0.348578,0.241566 -0.349361,0.241652 -2.196956,0.241652 -2.150557,0 -2.000975,0.07605 -2.145507,-1.090931 -0.0642,-0.518304 -0.168451,-0.843769 -0.407166,-1.270992 -0.277738,-0.497066 -0.393781,-0.611079 -0.863083,-0.847983 -0.468136,-0.236314 -0.643116,-0.273706 -1.280836,-0.273706 -0.963554,0 -1.669959,0.325185 -2.116605,0.97436 -0.265843,0.386396 -0.298053,0.507724 -0.338109,1.273515 -0.05419,1.036153 0.0962,1.505281 0.65242,2.03592 0.650267,0.62028 1.604234,1.05662 3.531528,1.61528 2.244466,0.65059 3.014008,1.04656 3.846708,1.97932 1.155118,1.29391 1.757983,3.10418 1.757983,5.27884 0,1.56549 -0.153303,2.24855 -0.812906,3.62185 -0.506789,1.05512 -0.60639,1.1978 -1.223086,1.75193 -0.795093,0.71442 -1.226688,0.95005 -2.272683,1.24073 -0.678668,0.18861 -1.039499,0.22202 -2.796056,0.25886 -1.951386,0.0409 -2.051423,0.0342 -3.082739,-0.20795 z"
         id="path21821" /><path
         style="fill:#ffffff;fill-opacity:1;stroke-width:0.0916741"
         d="m 91.779019,115.20616 -0.206266,-0.17207 0.0022,-11.07787 0.0022,-11.077854 0.319611,-0.343778 0.31961,-0.343777 h 1.81804 c 1.644866,0 1.832491,0.01596 1.969755,0.167648 0.13944,0.154079 0.151725,1.077324 0.151725,11.407171 v 11.23952 l -0.266257,0.1896 c -0.248062,0.17663 -0.390527,0.18937 -2.085581,0.18653 -1.64257,-0.003 -1.839368,-0.0198 -2.0256,-0.17512 z"
         id="path21823" /><path
         style="fill:#ffffff;fill-opacity:1;stroke-width:0.0916741"
         d="m 101.5423,115.06836 -0.2521,-0.31595 V 103.71795 92.683483 l 0.25712,-0.246335 0.25712,-0.246337 2.05765,5.92e-4 2.05765,5.91e-4 0.43024,0.368779 c 0.36305,0.311189 0.44033,0.436116 0.49489,0.79998 0.0396,0.26426 0.75529,1.922484 1.84849,4.283086 0.98111,2.118536 2.25688,4.903851 2.83507,6.189571 0.57818,1.28572 1.08267,2.37011 1.1211,2.40975 0.0384,0.0396 0.098,-3.00554 0.13262,-6.767054 0.0554,-6.035558 0.0799,-6.865328 0.20892,-7.062205 l 0.14616,-0.22309 1.75419,0.002 1.75418,0.002 0.2521,0.356467 0.2521,0.356467 v 10.694325 c 0,7.94918 -0.0273,10.7457 -0.10653,10.89454 -0.0587,0.11014 -0.23053,0.35495 -0.38204,0.54402 l -0.27549,0.34378 -1.8869,-0.003 -1.88689,-0.003 -0.33568,-0.39287 c -0.32577,-0.38127 -0.84266,-1.46489 -4.18259,-8.76852 -0.65713,-1.43699 -1.37564,-3.02239 -1.59668,-3.52313 -0.22104,-0.50074 -0.45167,-0.92703 -0.51249,-0.9473 -0.0856,-0.0285 -0.1106,1.45946 -0.1106,6.60115 v 6.63802 l -0.21218,0.19933 c -0.20319,0.19089 -0.2895,0.19933 -2.03974,0.19933 h -1.82758 z"
         id="path21825" /><path
         style="fill:#ffffff;fill-opacity:1;stroke-width:0.0916741"
         d="m 127.74724,115.87686 c -1.16761,-0.15481 -2.13171,-0.52594 -3.14676,-1.21133 -1.28589,-0.86826 -2.11207,-2.13803 -2.57436,-3.95657 -0.3129,-1.23089 -0.47648,-4.90661 -0.37736,-8.47985 0.0898,-3.238705 0.16267,-3.926044 0.55859,-5.271251 0.41209,-1.40011 0.9299,-2.298819 1.84289,-3.198504 1.50329,-1.481408 2.8848,-1.93524 5.89108,-1.93524 h 1.73854 l 1.14607,0.380595 c 1.84817,0.613761 2.50347,1.162455 3.32268,2.782159 0.5392,1.066051 0.7829,1.899853 0.86368,2.954982 0.0547,0.715536 0.0451,0.773218 -0.18744,1.108686 l -0.24524,0.353881 -1.68856,0.061 c -1.47847,0.05341 -1.72896,0.04173 -2.01335,-0.09389 -0.36162,-0.172447 -0.34721,-0.140925 -0.55876,-1.221903 -0.0839,-0.428576 -0.25808,-0.975039 -0.38713,-1.214363 -0.48438,-0.898304 -1.74773,-1.357093 -3.06213,-1.112022 -0.83388,0.155479 -1.28084,0.405369 -1.66774,0.93243 -0.28273,0.385153 -0.35291,0.589732 -0.5122,1.493091 -0.28461,1.613957 -0.35462,4.259499 -0.21574,8.151519 0.13362,3.74413 0.13914,3.77434 0.86943,4.75083 0.50594,0.67652 0.91637,0.84129 2.09568,0.84129 1.05179,0 1.67176,-0.21404 2.15746,-0.74483 0.57131,-0.62436 0.74541,-1.0601 0.85378,-2.13684 0.1115,-1.10788 0.12704,-1.91521 0.0429,-2.22916 -0.0535,-0.19961 -0.0913,-0.20626 -1.17365,-0.20626 h -1.11838 l -0.24026,-0.52713 c -0.20237,-0.44399 -0.24813,-0.7015 -0.29017,-1.63272 l -0.0499,-1.1056 0.39138,-0.38411 0.39138,-0.38411 h 2.94705 c 1.66034,0 3.04808,0.0384 3.17844,0.0879 0.12801,0.0486 0.31502,0.25186 0.41851,0.45472 0.17687,0.34668 0.1871,0.52796 0.1871,3.31553 0,2.68557 -0.0174,3.02345 -0.19522,3.7852 -0.33169,1.42114 -1.39741,3.26045 -2.3589,4.07119 -1.03411,0.87199 -2.69725,1.43888 -4.50479,1.53551 -0.52941,0.0283 -1.0657,0.0636 -1.19176,0.0785 -0.12605,0.0148 -0.63763,-0.0272 -1.13683,-0.0934 z"
         id="path21827" /><path
         style="fill:#ffffff;fill-opacity:1;stroke-width:0.0916741"
         d="m 55.269847,144.38087 c -0.07563,-0.0273 -0.20879,-0.13749 -0.295899,-0.24486 -0.148113,-0.18255 -0.158527,-0.91876 -0.160431,-11.33939 l -0.0022,-11.14416 0.252099,-0.23105 0.2521,-0.23105 4.308686,0.0693 c 4.990488,0.0803 5.428743,0.12813 6.469918,0.70511 1.252456,0.69409 2.41739,2.1766 3.060898,3.89534 0.21878,0.58434 0.232469,0.72306 0.232469,2.35588 0,1.61 -0.01709,1.7898 -0.237551,2.49602 -0.430355,1.3788 -0.93105,2.07642 -2.316167,3.22713 -0.21965,0.18248 -0.45485,0.36283 -0.522654,0.40078 -0.177581,0.0993 0.494721,1.98842 1.932375,5.42963 0.642475,1.53784 1.262348,3.09839 1.37751,3.46791 l 0.209389,0.67184 -0.244374,0.2449 -0.244373,0.24489 -2.154333,-0.0276 -2.154343,-0.0276 -1.695967,-4.32021 c -1.190375,-3.03229 -1.764012,-4.38367 -1.924225,-4.53311 -0.200095,-0.18666 -0.320318,-0.21292 -0.974795,-0.21292 -0.691356,0 -0.75199,0.0152 -0.819936,0.20627 -0.04037,0.11344 -0.08706,2.08329 -0.103922,4.37744 -0.02133,2.91247 -0.06235,4.2334 -0.136153,4.37742 -0.104683,0.20441 -0.123063,0.2062 -2.038223,0.19903 -1.062917,-0.004 -1.994456,-0.0296 -2.070096,-0.0569 z m 8.067317,-13.0111 c 0.326771,-0.14931 0.592919,-0.35424 0.75631,-0.58237 l 0.2521,-0.35198 v -1.89674 -1.89673 l -0.294398,-0.47728 c -0.249618,-0.4047 -0.381354,-0.51483 -0.866336,-0.72425 -0.541991,-0.23403 -0.64871,-0.24697 -2.037885,-0.24697 -0.87761,0 -1.488658,0.0368 -1.522544,0.0916 -0.09348,0.15134 -0.160355,5.23172 -0.07596,5.77484 0.07182,0.46218 0.100766,0.50788 0.352093,0.55684 0.150626,0.0293 0.872038,0.0377 1.603134,0.0184 1.181583,-0.031 1.385291,-0.0605 1.833481,-0.26533 z"
         id="path21829" /><path
         style="fill:#ffffff;fill-opacity:1;stroke-width:0.0916741"
         d="m 78.509213,144.5421 c -1.242521,-0.34629 -1.492292,-0.46213 -2.383166,-1.10526 -1.552371,-1.12068 -2.441395,-2.89796 -2.751506,-5.5007 -0.126414,-1.06093 -0.138667,-1.93776 -0.08586,-6.14216 l 0.06159,-4.90456 0.273178,-1.00841 c 0.354715,-1.30936 0.775397,-2.05862 1.674715,-2.98276 0.891288,-0.91588 1.560315,-1.27649 3.165158,-1.70604 1.090055,-0.29178 1.22326,-0.30674 2.732266,-0.30708 1.421941,-3.2e-4 1.672376,0.0238 2.416552,0.23307 0.456624,0.12838 1.234012,0.43606 1.727536,0.68372 0.734938,0.36881 0.990171,0.55541 1.41045,1.03115 0.681954,0.77197 1.166859,1.80574 1.56853,3.34403 0.311438,1.19274 0.337283,1.40563 0.468463,3.85982 0.12476,2.33394 0.124358,2.90591 -0.0044,5.63795 -0.126142,2.68584 -0.17042,3.14743 -0.37958,3.95723 -0.343496,1.3299 -0.812438,2.25258 -1.55051,3.05072 -0.542394,0.58654 -0.734894,0.72297 -1.592709,1.12878 -0.615706,0.29129 -1.380819,0.56096 -2.073535,0.73085 -0.97066,0.23806 -1.251988,0.26842 -2.42936,0.26218 -1.163193,-0.007 -1.447513,-0.0394 -2.248319,-0.26253 z m 3.907647,-3.89257 c 0.713544,-0.31884 1.019248,-0.69624 1.269737,-1.56747 0.201684,-0.70144 0.214057,-0.92903 0.284157,-5.22542 0.0777,-4.76444 -0.01469,-6.83005 -0.345607,-7.72295 -0.203773,-0.54987 -1.165935,-1.16973 -1.958459,-1.26171 -0.816269,-0.0948 -1.998515,0.0296 -2.357289,0.24799 -0.637067,0.38773 -0.757714,0.66938 -0.943946,2.20357 -0.140919,1.161 -0.169952,2.07082 -0.170409,5.34135 -7.95e-4,5.56205 0.148733,6.92043 0.828837,7.52993 0.120299,0.10783 0.42499,0.30183 0.67709,0.43118 0.395816,0.20307 0.578805,0.23575 1.340784,0.23944 0.739638,0.003 0.962139,-0.0313 1.375105,-0.21591 z"
         id="path21831" /><path
         style="fill:#ffffff;fill-opacity:1;stroke-width:0.0916741"
         d="m 98.998347,144.7494 c -0.751772,-0.0773 -1.66157,-0.35975 -2.475194,-0.76871 -0.712826,-0.35828 -1.007604,-0.57634 -1.624039,-1.20139 -1.008452,-1.02257 -1.572948,-2.14083 -1.958883,-3.88059 l -0.264364,-1.19176 -0.0011,-4.63717 -0.0011,-4.63718 0.320949,-1.43261 c 0.464241,-2.07229 0.943804,-3.05549 1.982649,-4.06486 1.932506,-1.87766 4.973904,-2.59873 7.873545,-1.86667 1.29806,0.3277 1.79738,0.60465 2.90014,1.6085 1.12386,1.02305 1.50829,1.66219 1.85286,3.08046 0.15125,0.62261 0.30129,1.53821 0.3334,2.03469 0.0855,1.3227 0.21564,1.25165 -2.29167,1.25165 -1.82203,0 -2.04909,-0.0168 -2.17659,-0.16043 -0.10534,-0.11873 -0.15099,-0.42434 -0.17556,-1.17584 l -0.0332,-1.01541 -0.49961,-0.61577 c -0.27477,-0.33867 -0.69783,-0.73774 -0.94012,-0.88682 -0.39582,-0.24356 -0.51829,-0.27106 -1.20696,-0.27106 -0.624069,0 -0.866506,0.044 -1.304989,0.23683 -0.681519,0.29971 -0.907328,0.51007 -1.221977,1.13828 -0.224535,0.44832 -0.274581,0.72776 -0.451487,2.52104 -0.18757,1.90139 -0.193566,2.208 -0.104683,5.35706 0.106315,3.76726 0.220302,4.75913 0.64329,5.59705 0.236822,0.46914 0.349862,0.5836 0.855944,0.86661 0.550132,0.30765 0.630668,0.32608 1.424882,0.32608 0.7482,0 0.9001,-0.0296 1.3663,-0.26672 1.11298,-0.56596 1.48709,-1.27945 1.48709,-2.83607 0,-0.64928 0.0393,-1.03861 0.11459,-1.13675 0.097,-0.12621 0.41874,-0.15829 2.08558,-0.20792 l 1.971,-0.0587 0.26331,0.21823 0.26333,0.21822 -0.1518,1.33442 c -0.18435,1.6207 -0.43775,2.34352 -1.2716,3.62714 -0.71971,1.10794 -1.32214,1.65821 -2.34522,2.14217 -1.22714,0.58049 -2.34581,0.81937 -3.754,0.8016 -0.639663,-0.008 -1.307406,-0.0295 -1.483877,-0.0477 z"
         id="path21833" /><path
         style="fill:#ffffff;fill-opacity:1;stroke-width:0.0916741"
         d="m 112.38276,144.38667 c -0.0756,-0.0316 -0.2097,-0.12016 -0.29794,-0.19703 -0.15114,-0.13166 -0.16044,-0.78363 -0.16044,-11.25954 v -11.11978 l 0.40614,-0.27943 0.40613,-0.27942 h 1.58276 1.58277 l 0.25711,0.24633 0.25712,0.24634 0.003,4.26861 c 0.002,3.44164 0.0269,4.30027 0.12687,4.432 0.11631,0.15332 0.13733,0.14739 0.34087,-0.0962 0.11929,-0.14276 1.33075,-2.19004 2.69211,-4.5495 1.84643,-3.20019 2.53808,-4.32267 2.72274,-4.41878 0.18966,-0.0987 0.69741,-0.12883 2.17102,-0.12883 h 1.92346 l 0.18844,0.26463 c 0.16333,0.22938 0.17433,0.30513 0.0826,0.5684 -0.12534,0.35955 -1.71648,2.94593 -3.23798,5.26329 -1.36171,2.07399 -2.0626,3.22487 -2.0626,3.38685 0,0.15517 1.33852,2.98146 4.06456,8.5824 1.14268,2.34775 2.0776,4.37058 2.0776,4.49518 0,0.1543 -0.0874,0.27815 -0.27397,0.38838 -0.23219,0.13716 -0.58518,0.16898 -2.31477,0.20867 -1.9116,0.0439 -2.05334,0.0358 -2.23894,-0.12726 -0.22654,-0.19906 -0.97099,-1.65583 -2.00144,-3.91651 -0.3907,-0.85716 -1.08149,-2.29995 -1.53509,-3.20621 l -0.82473,-1.64776 -0.94812,1.00604 -0.94812,1.00603 -0.003,3.30113 c -0.003,3.29156 -0.004,3.3015 -0.20368,3.42604 -0.1449,0.0905 -0.68163,0.1343 -1.94807,0.15904 -0.96144,0.0188 -1.80996,0.009 -1.88558,-0.0232 z"
         id="path21835" /><path
         style="fill:#ffffff;fill-opacity:1;stroke-width:0.0916741"
         d="m 80.292703,163.33708 c -0.380429,-0.14057 -0.907806,-0.41085 -1.17193,-0.6006 -0.579447,-0.41629 -1.199212,-1.27098 -1.464315,-2.01935 -0.283516,-0.80036 -0.568282,-2.9767 -0.567727,-4.33894 0.0011,-3.03878 1.019062,-5.06377 3.006772,-5.9821 0.774906,-0.358 0.780228,-0.35898 1.94329,-0.35898 h 1.16625 l 0.779477,0.36527 c 0.640113,0.29997 0.870852,0.46936 1.290586,0.94744 0.589763,0.67176 0.927884,1.36833 1.01928,2.0999 0.105119,0.841 0.03156,0.89607 -1.195479,0.89607 -0.707657,0 -1.048595,-0.0351 -1.11097,-0.1146 -0.04951,-0.063 -0.188626,-0.37742 -0.309164,-0.69867 -0.186602,-0.4973 -0.287085,-0.6301 -0.676317,-0.89382 -0.411965,-0.27913 -0.520675,-0.3097 -1.100089,-0.30935 -0.556998,3.4e-4 -0.696928,0.0362 -1.046811,0.26834 -0.967265,0.6417 -1.235067,1.75241 -1.142071,4.73659 l 0.05974,1.91606 0.393618,0.77924 c 0.3338,0.6608 0.463991,0.82451 0.85664,1.07716 0.327478,0.21073 0.57158,0.29795 0.833832,0.29795 0.923574,0 1.92318,-0.95473 1.92318,-1.83685 0,-0.23008 0.04951,-0.46784 0.110005,-0.52834 0.0703,-0.0703 0.42807,-0.11001 0.991259,-0.11001 0.847489,0 0.890766,0.01 1.129514,0.25912 0.243111,0.25375 0.246375,0.27242 0.157536,0.89885 -0.198322,1.39837 -1.021293,2.53091 -2.25167,3.09868 -0.580601,0.26791 -0.753046,0.30183 -1.787647,0.35153 -1.095638,0.0527 -1.174913,0.044 -1.836757,-0.20059 z"
         id="path21837" /><path
         style="fill:#ffffff;fill-opacity:1;stroke-width:0.0916741"
         d="m 93.127638,163.34557 c -0.843865,-0.29904 -1.427143,-0.73638 -2.011378,-1.50815 -0.810381,-1.07049 -1.097771,-2.47668 -1.100317,-5.38378 -0.0011,-1.69561 0.01959,-1.95711 0.214818,-2.66673 0.432575,-1.57226 1.342254,-2.78403 2.543358,-3.38793 l 0.719725,-0.36187 h 1.511499 1.511498 l 0.581841,0.31982 c 0.698767,0.38409 1.477743,1.22787 1.893005,2.0505 0.68104,1.34913 0.97103,4.96997 0.5643,7.04594 -0.310296,1.58376 -0.947199,2.62775 -2.024425,3.31841 -1.315234,0.84326 -3.017621,1.06506 -4.403924,0.57379 z m 2.84547,-2.34679 c 0.970922,-0.68406 1.221443,-1.769 1.176371,-5.09454 l -0.03047,-2.24601 -0.259238,-0.43277 c -0.142585,-0.23803 -0.42918,-0.55774 -0.63686,-0.71048 -0.35564,-0.26153 -0.425926,-0.27755 -1.207547,-0.27514 -0.7731,0.002 -0.854116,0.0209 -1.18328,0.26999 -0.940888,0.7121 -1.211487,1.54739 -1.304962,4.0282 -0.05474,1.45143 -0.04091,1.70366 0.138167,2.52896 0.361756,1.66721 1.064201,2.36149 2.294697,2.26804 0.48274,-0.0367 0.681508,-0.10261 1.0131,-0.33625 z"
         id="path21839" /><path
         style="fill:#ffffff;fill-opacity:1;stroke-width:0.0916741"
         d="m 102.53744,163.55134 c -0.50209,-0.18199 -0.58637,-0.27304 -0.74557,-0.80545 -0.22306,-0.74592 -0.10686,-1.36802 0.34759,-1.86104 0.34866,-0.37825 0.39024,-0.3969 0.88475,-0.3969 0.49824,0 0.53609,0.0174 0.9509,0.4386 l 0.43201,0.4386 v 0.73407 0.73408 l -0.38962,0.37451 c -0.45673,0.43904 -0.91994,0.54654 -1.48006,0.34353 z"
         id="path21841" /></g></g></svg>
