<?xml version="1.0" encoding="UTF-8" standalone="no"?>
<!-- Created with Inkscape (http://www.inkscape.org/) -->

<svg
   width="180"
   height="180"
   viewBox="0 0 180 180"
   version="1.1"
   id="svg5"
   xml:space="preserve"
   inkscape:version="1.2.2 (b0a8486541, 2022-12-01)"
   sodipodi:docname="rising-rock-profile.svg"
   inkscape:export-filename="../bitmap.png"
   inkscape:export-xdpi="96"
   inkscape:export-ydpi="96"
   xmlns:inkscape="http://www.inkscape.org/namespaces/inkscape"
   xmlns:sodipodi="http://sodipodi.sourceforge.net/DTD/sodipodi-0.dtd"
   xmlns="http://www.w3.org/2000/svg"
   xmlns:svg="http://www.w3.org/2000/svg"><sodipodi:namedview
     id="namedview7"
     pagecolor="#fff2e2"
     bordercolor="#000000"
     borderopacity="0.25"
     inkscape:showpageshadow="2"
     inkscape:pageopacity="1"
     inkscape:pagecheckerboard="0"
     inkscape:deskcolor="#d1d1d1"
     inkscape:document-units="px"
     showgrid="true"
     inkscape:lockguides="true"
     inkscape:zoom="4.1967306"
     inkscape:cx="114.85131"
     inkscape:cy="59.689321"
     inkscape:window-width="1920"
     inkscape:window-height="1004"
     inkscape:window-x="1920"
     inkscape:window-y="0"
     inkscape:window-maximized="1"
     inkscape:current-layer="layer1"><inkscape:grid
       type="xygrid"
       id="grid390" /></sodipodi:namedview><defs
     id="defs2" /><g
     inkscape:label="Layer 1"
     inkscape:groupmode="layer"
     id="layer1"><g
       id="g21860"
       transform="matrix(1.088184,0,0,1.088184,-119.97014,-3.7782065)"><path
         style="fill:#c1631a;fill-opacity:1;stroke-width:0.67396"
         d="m 179.5828,59.811185 c -1.6967,-2.427165 -3.08492,-5.140067 -3.08492,-6.028672 0,-2.506078 2.65014,-19.937388 3.16258,-20.801837 0.25089,-0.423252 3.48076,-4.1652 7.17747,-8.315441 6.05536,-6.798268 6.84428,-7.459749 7.96264,-6.676421 1.40092,0.981245 7.57445,7.912634 8.99168,10.0955 0.51099,0.787036 1.9051,7.1573 3.09802,14.156141 2.42765,14.242912 2.46772,13.887261 -2.20275,19.553345 l -2.00335,2.430412 h -10.00822 -10.00822 z"
         id="path12243" /><path
         style="fill:#a75913;fill-opacity:1;stroke-width:0.238281"
         d="m 184.04671,82.067288 c -2.24214,-0.460229 -3.73296,-1.206724 -3.72918,-1.867306 0.009,-1.540076 5.74553,-3.390977 11.31539,-3.650815 5.42195,-0.252938 11.6789,1.053314 13.64157,2.847927 1.05628,0.965834 0.50398,1.614277 -2.08496,2.44792 -1.12848,0.363372 -2.43603,0.431352 -9.41209,0.489341 -6.23769,0.05185 -8.47635,-0.0096 -9.73073,-0.267067 z"
         id="path18775" /><path
         style="fill:#c06219;fill-opacity:1;stroke-width:0.238281"
         d="m 182.24553,63.70452 c -0.89569,-0.753673 -5.46205,-7.282731 -5.9343,-8.484951 -0.31184,-0.79387 -0.28428,-1.297603 0.29333,-5.361537 1.68951,-11.886991 2.36216,-15.96986 2.76069,-16.756806 0.63665,-1.257128 7.66967,-9.325836 12.11029,-13.893657 1.76363,-1.814148 2.12268,-2.079771 2.64767,-1.958725 0.33443,0.07711 1.57262,1.127287 2.75542,2.337041 2.52016,2.577567 7.20503,8.081683 7.667,9.007729 0.31809,0.637628 4.60092,24.916246 4.60092,26.08182 0,0.332685 -0.21847,1.033109 -0.48548,1.556495 -0.88683,1.738344 -3.47517,5.564422 -4.62258,6.833097 l -1.1314,1.250974 h -9.96743 -9.96743 z"
         id="path19329" /><path
         style="fill:#773d04;fill-opacity:1;stroke-width:0.238281"
         d="m 158.33319,77.046869 c -1.26785,-0.687818 -0.68282,-1.341446 2.91893,-3.26121 5.33556,-2.843892 12.43167,-4.904809 20.73043,-6.020718 3.79091,-0.509752 13.58524,-0.715224 17.84791,-0.374425 9.72328,0.777373 17.37583,2.681863 24.04179,5.983278 4.64397,2.299999 5.25672,2.875163 3.96482,3.721649 -0.53778,0.352367 -1.1077,0.381063 -4.80086,0.241736 l -4.19064,-0.158096 -2.76455,-1.037386 c -13.42021,-5.035864 -33.77511,-4.896872 -46.58805,0.318123 l -2.36264,0.96162 -4.07094,-0.0095 c -3.14298,-0.0074 -4.2203,-0.09057 -4.7262,-0.365031 z"
         id="path20573" /><path
         style="fill:#392417;fill-opacity:1;stroke-width:0.084245"
         d="m 150.27432,109.37473 -0.18724,-0.13115 V 98.818842 c 0,-7.995814 0.0236,-10.448306 0.1011,-10.525845 0.16388,-0.163886 7.88471,-0.140453 8.84102,0.02683 1.16073,0.203043 1.98802,0.639464 2.82348,1.489462 1.25508,1.276921 1.88209,2.929316 1.88209,4.960005 0,2.435918 -0.77349,4.104818 -2.37837,5.131628 -0.63372,0.405458 -0.64995,0.424218 -0.59996,0.693288 0.0909,0.48912 0.95371,2.75219 1.76474,4.62862 0.43378,1.0036 0.94094,2.21672 1.12703,2.69584 0.62459,1.60805 0.65075,1.5872 -1.99208,1.5872 -1.82186,0 -2.03602,-0.0147 -2.15156,-0.14743 -0.11813,-0.13573 -0.67058,-1.51323 -2.44108,-6.0867 -0.36772,-0.94986 -0.74863,-1.81231 -0.84648,-1.91657 -0.15225,-0.16222 -0.26385,-0.18938 -0.77399,-0.1884 -0.32785,6.7e-4 -0.68139,0.024 -0.78565,0.0519 l -0.18955,0.0508 v 3.80412 3.80413 l -0.25887,0.31405 -0.25886,0.31405 h -1.74427 c -1.44235,0 -1.77667,-0.0227 -1.9315,-0.13114 z m 7.82251,-11.827698 c 0.259,-0.12886 0.45835,-0.31231 0.60727,-0.55886 0.20508,-0.33953 0.22609,-0.465536 0.28032,-1.681064 0.0551,-1.235478 0.0467,-1.351906 -0.14011,-1.947701 -0.25682,-0.818885 -0.74895,-1.305146 -1.49431,-1.476481 -0.58879,-0.135346 -2.70899,-0.128165 -2.79404,0.0095 -0.10292,0.166516 -0.24313,4.148814 -0.1693,4.808256 0.0389,0.34751 0.0731,0.71435 0.076,0.81521 0.003,0.10086 0.0716,0.20299 0.15264,0.22696 0.0811,0.024 0.81086,0.0329 1.62172,0.0198 1.33769,-0.0216 1.51001,-0.0416 1.85986,-0.2156 z"
         id="path21817" /><path
         style="fill:#392417;fill-opacity:1;stroke-width:0.084245"
         d="m 168.08644,109.35181 c -0.12814,-0.14159 -0.13942,-0.98912 -0.13942,-10.469748 0,-9.380718 0.0124,-10.333383 0.13673,-10.510903 l 0.13673,-0.195214 1.87639,0.02904 c 1.70318,0.02636 1.89275,0.04385 2.05363,0.189526 l 0.17725,0.160485 v 10.346906 10.346908 l -0.24855,0.12853 c -0.20007,0.10346 -0.6001,0.12853 -2.05094,0.12853 -1.63914,0 -1.81502,-0.014 -1.94182,-0.15406 z"
         id="path21819" /><path
         style="fill:#392417;fill-opacity:1;stroke-width:0.084245"
         d="m 180.91003,109.69373 c -1.4584,-0.34241 -1.79348,-0.57898 -2.90082,-2.04799 -1.08923,-1.44497 -1.36007,-2.08301 -1.46337,-3.4473 l -0.067,-0.88457 0.22012,-0.18913 c 0.25018,-0.21497 0.5263,-0.22931 2.59408,-0.13471 l 1.19454,0.0547 0.23763,0.934 c 0.28058,1.10282 0.70535,1.82879 1.24856,2.13386 0.29995,0.16845 0.45529,0.1894 1.41351,0.19064 1.02193,0.001 1.10097,-0.011 1.55853,-0.24268 0.33237,-0.1683 0.56701,-0.36521 0.7558,-0.6343 l 0.2738,-0.39024 v -1.09734 -1.09734 l -0.34187,-0.50343 c -0.54037,-0.79572 -1.13524,-1.13192 -3.19642,-1.80646 -0.98653,-0.32284 -2.10812,-0.756248 -2.61585,-1.010808 -2.14143,-1.07365 -3.19705,-2.77929 -3.19705,-5.165674 0,-1.823588 0.56353,-3.374924 1.66613,-4.586657 0.45421,-0.499165 0.69678,-0.681401 1.35992,-1.021667 0.69274,-0.355458 0.94436,-0.435921 1.77591,-0.567899 1.08301,-0.171889 2.56628,-0.201862 3.83336,-0.07746 0.74725,0.07336 0.94278,0.130231 1.72702,0.502296 0.7951,0.377219 0.96232,0.498783 1.6568,1.204465 0.59567,0.605282 0.82077,0.901436 0.98367,1.294145 0.33432,0.80598 0.56063,1.817211 0.56063,2.505091 v 0.627405 l -0.32045,0.22207 c -0.32033,0.22199 -0.32105,0.222069 -2.01892,0.222069 -1.97628,0 -1.83882,0.06989 -1.97164,-1.002525 -0.059,-0.476301 -0.1548,-0.775391 -0.37417,-1.167993 -0.25523,-0.456785 -0.36187,-0.561559 -0.79314,-0.779265 -0.4302,-0.217163 -0.591,-0.251525 -1.17704,-0.251525 -0.88547,0 -1.53463,0.298833 -1.94508,0.8954 -0.2443,0.355083 -0.2739,0.466579 -0.31071,1.170312 -0.0498,0.952186 0.0884,1.383297 0.59955,1.870933 0.59757,0.57002 1.47423,0.970994 3.24534,1.484379 2.06258,0.59787 2.76976,0.96175 3.53498,1.81892 1.06151,1.18906 1.61552,2.852628 1.61552,4.851058 0,1.43863 -0.14088,2.06633 -0.74703,3.32834 -0.46572,0.96962 -0.55725,1.10074 -1.12397,1.60996 -0.73066,0.65653 -1.12728,0.87306 -2.08851,1.14019 -0.62367,0.17332 -0.95526,0.20402 -2.56947,0.23788 -1.79325,0.0376 -1.88518,0.0314 -2.83292,-0.1911 z"
         id="path21821" /><path
         style="fill:#392417;fill-opacity:1;stroke-width:0.084245"
         d="m 194.58948,109.34214 -0.18955,-0.15813 0.002,-10.180138 0.002,-10.180132 0.29371,-0.315919 0.29371,-0.315918 h 1.67071 c 1.51157,0 1.68399,0.01467 1.81013,0.154062 0.12814,0.141593 0.13943,0.99002 0.13943,10.482757 v 10.328698 l -0.24468,0.17423 c -0.22796,0.16232 -0.35888,0.17403 -1.91657,0.17142 -1.50946,-0.003 -1.69031,-0.0182 -1.86145,-0.16093 z"
         id="path21823" /><path
         style="fill:#392417;fill-opacity:1;stroke-width:0.084245"
         d="m 203.56157,109.21551 -0.23167,-0.29035 V 98.784912 88.64465 l 0.23628,-0.226373 0.23628,-0.226374 1.89091,5.44e-4 1.8909,5.43e-4 0.39537,0.338894 c 0.33363,0.285971 0.40465,0.400774 0.45479,0.735151 0.0364,0.242845 0.69408,1.76669 1.69869,3.935995 0.9016,1.946854 2.07399,4.506452 2.60532,5.687982 0.53133,1.181528 0.99494,2.178038 1.03025,2.214468 0.0353,0.0364 0.0901,-2.761978 0.12187,-6.218666 0.0509,-5.54645 0.0734,-6.308977 0.19199,-6.4899 l 0.13432,-0.205011 1.61203,0.0018 1.61203,0.0018 0.23167,0.32758 0.23167,0.32758 v 9.827679 c 0,7.304998 -0.0251,9.874898 -0.0979,10.011678 -0.0539,0.10121 -0.21185,0.32618 -0.35108,0.49993 l -0.25316,0.31592 -1.73399,-0.003 -1.73398,-0.003 -0.30848,-0.36103 c -0.29937,-0.35038 -0.77437,-1.34618 -3.84364,-8.05794 -0.60388,-1.320538 -1.26416,-2.777468 -1.46729,-3.237628 -0.20313,-0.46016 -0.41507,-0.8519 -0.47096,-0.87053 -0.0787,-0.0262 -0.10164,1.34119 -0.10164,6.066208 v 6.10009 l -0.19498,0.18318 c -0.18673,0.17542 -0.26604,0.18317 -1.87445,0.18317 h -1.67947 z"
         id="path21825" /><path
         style="fill:#392417;fill-opacity:1;stroke-width:0.084245"
         d="m 227.64292,109.95849 c -1.07299,-0.14227 -1.95896,-0.48332 -2.89176,-1.11317 -1.18168,-0.7979 -1.94091,-1.96477 -2.36574,-3.63594 -0.28754,-1.13114 -0.43786,-4.50899 -0.34678,-7.792658 0.0825,-2.976249 0.14949,-3.607888 0.51333,-4.844082 0.37869,-1.286648 0.85454,-2.112528 1.69354,-2.939305 1.38147,-1.361358 2.65103,-1.778412 5.41368,-1.778412 h 1.59766 l 1.05319,0.349752 c 1.6984,0.564024 2.3006,1.068253 3.05342,2.556699 0.4955,0.979661 0.71945,1.745894 0.79369,2.715517 0.0503,0.657551 0.0414,0.710558 -0.17225,1.018841 l -0.22537,0.325203 -1.55172,0.05606 c -1.35866,0.04908 -1.58885,0.03835 -1.85019,-0.08628 -0.33232,-0.158472 -0.31908,-0.129505 -0.51348,-1.122883 -0.0771,-0.393845 -0.23717,-0.896024 -0.35576,-1.115953 -0.44513,-0.825508 -1.6061,-1.247118 -2.81398,-1.021907 -0.76631,0.14288 -1.17705,0.372519 -1.53259,0.856868 -0.25982,0.353941 -0.32431,0.541942 -0.4707,1.372095 -0.26154,1.483165 -0.32588,3.914317 -0.19825,7.490945 0.12279,3.44071 0.12786,3.46847 0.79897,4.36583 0.46494,0.6217 0.84211,0.77311 1.92585,0.77311 0.96656,0 1.53629,-0.19669 1.98263,-0.68447 0.52501,-0.57377 0.685,-0.9742 0.78459,-1.96368 0.10246,-1.0181 0.11674,-1.76001 0.0394,-2.04851 -0.0492,-0.18344 -0.0839,-0.18955 -1.07854,-0.18955 h -1.02775 l -0.22079,-0.48441 c -0.18597,-0.40801 -0.22802,-0.64465 -0.26665,-1.500408 l -0.0459,-1.016 0.35966,-0.35298 0.35966,-0.35298 h 2.70823 c 1.52579,0 2.80107,0.0353 2.92087,0.0808 0.11763,0.0447 0.28949,0.23145 0.38459,0.41787 0.16254,0.31859 0.17194,0.48518 0.17194,3.046848 0,2.46794 -0.016,2.77844 -0.1794,3.47846 -0.30481,1.30597 -1.28417,2.99623 -2.16774,3.74127 -0.95031,0.80132 -2.47867,1.32227 -4.13973,1.41107 -0.48651,0.026 -0.97934,0.0584 -1.09518,0.0721 -0.11584,0.0136 -0.58596,-0.025 -1.04471,-0.0858 z"
         id="path21827" /><path
         style="fill:#392417;fill-opacity:1;stroke-width:0.084245"
         d="m 161.03893,136.1526 c -0.0695,-0.0251 -0.19187,-0.12635 -0.27192,-0.22502 -0.13611,-0.16776 -0.14568,-0.84431 -0.14743,-10.42047 l -0.002,-10.24106 0.23167,-0.21233 0.23167,-0.21233 3.95952,0.0637 c 4.58607,0.0738 4.98881,0.11774 5.94561,0.64797 1.15096,0.63784 2.22149,2.00021 2.81285,3.57967 0.20105,0.53698 0.21363,0.66446 0.21363,2.16496 0,1.47953 -0.0157,1.64476 -0.2183,2.29375 -0.39548,1.26706 -0.8556,1.90815 -2.12847,2.96561 -0.20185,0.16769 -0.41799,0.33343 -0.4803,0.3683 -0.16319,0.0913 0.45463,1.82728 1.77578,4.98963 0.59041,1.41321 1.16005,2.8473 1.26588,3.18687 l 0.19242,0.6174 -0.22457,0.22505 -0.22457,0.22505 -1.97975,-0.0254 -1.97976,-0.0254 -1.55853,-3.97011 c -1.09391,-2.78656 -1.62106,-4.02843 -1.76829,-4.16576 -0.18388,-0.17153 -0.29436,-0.19566 -0.8958,-0.19566 -0.63533,0 -0.69105,0.014 -0.75349,0.18955 -0.0371,0.10425 -0.08,1.91447 -0.0955,4.0227 -0.0196,2.67645 -0.0573,3.89034 -0.12512,4.02269 -0.0962,0.18784 -0.11309,0.18949 -1.87305,0.1829 -0.97678,-0.004 -1.83283,-0.0272 -1.90234,-0.0523 z m 7.41356,-11.95671 c 0.30029,-0.13721 0.54487,-0.32554 0.69502,-0.53518 l 0.23167,-0.32346 v -1.74303 -1.74302 l -0.27054,-0.4386 c -0.22939,-0.37191 -0.35045,-0.47311 -0.79613,-0.66556 -0.49807,-0.21507 -0.59614,-0.22696 -1.87274,-0.22696 -0.80649,0 -1.36802,0.0338 -1.39916,0.0842 -0.0859,0.13907 -0.14736,4.80775 -0.0698,5.30686 0.066,0.42472 0.0926,0.46672 0.32356,0.51171 0.13842,0.0269 0.80137,0.0346 1.47322,0.0169 1.08583,-0.0285 1.27303,-0.0556 1.6849,-0.24383 z"
         id="path21829" /><path
         style="fill:#392417;fill-opacity:1;stroke-width:0.084245"
         d="m 182.39503,136.30076 c -1.14183,-0.31823 -1.37136,-0.42468 -2.19004,-1.01569 -1.42657,-1.02986 -2.24355,-2.66312 -2.52853,-5.05494 -0.11617,-0.97495 -0.12743,-1.78073 -0.0789,-5.64441 l 0.0566,-4.50711 0.25104,-0.92669 c 0.32597,-1.20325 0.71256,-1.89179 1.539,-2.74104 0.81906,-0.84166 1.43387,-1.17305 2.90866,-1.56779 1.00172,-0.26813 1.12413,-0.28188 2.51085,-0.28219 1.30671,-3e-4 1.53685,0.0219 2.22072,0.21418 0.41962,0.11798 1.13401,0.40072 1.58754,0.62831 0.67538,0.33893 0.90993,0.5104 1.29615,0.94759 0.62669,0.70941 1.0723,1.65941 1.44142,3.07304 0.2862,1.09608 0.30995,1.29172 0.4305,3.54703 0.11465,2.1448 0.11428,2.67042 -0.004,5.18106 -0.11592,2.46819 -0.15661,2.89237 -0.34882,3.63655 -0.31566,1.22212 -0.7466,2.07003 -1.42486,2.80349 -0.49844,0.53901 -0.67534,0.66438 -1.46364,1.03731 -0.56581,0.26768 -1.26892,0.5155 -1.9055,0.67162 -0.892,0.21877 -1.15053,0.24667 -2.23249,0.24094 -1.06893,-0.006 -1.33021,-0.0362 -2.06612,-0.24126 z m 3.59098,-3.57712 c 0.65572,-0.29301 0.93665,-0.63982 1.16684,-1.44045 0.18534,-0.6446 0.19671,-0.85374 0.26113,-4.80196 0.0714,-4.37834 -0.0135,-6.27656 -0.3176,-7.0971 -0.18726,-0.50531 -1.07145,-1.07494 -1.79975,-1.15947 -0.75012,-0.0871 -1.83656,0.0272 -2.16626,0.2279 -0.58544,0.35631 -0.69631,0.61513 -0.86745,2.02499 -0.1295,1.06692 -0.15618,1.90301 -0.1566,4.9085 -7.3e-4,5.11132 0.13668,6.35962 0.76167,6.91972 0.11055,0.0991 0.39055,0.27737 0.62222,0.39624 0.36374,0.18662 0.5319,0.21665 1.23213,0.22004 0.6797,0.003 0.88417,-0.0288 1.26367,-0.19841 z"
         id="path21831" /><path
         style="fill:#392417;fill-opacity:1;stroke-width:0.084245"
         d="m 201.22377,136.49126 c -0.69085,-0.071 -1.52692,-0.3306 -2.27461,-0.70641 -0.65506,-0.32925 -0.92595,-0.52964 -1.49243,-1.10404 -0.92673,-0.9397 -1.44548,-1.96734 -1.80014,-3.56611 l -0.24294,-1.09518 -10e-4,-4.26139 -0.001,-4.26139 0.29494,-1.31652 c 0.42662,-1.90435 0.86732,-2.80788 1.82198,-3.73545 1.7759,-1.7255 4.57083,-2.38813 7.23549,-1.7154 1.19286,0.30115 1.65172,0.55565 2.66512,1.47815 1.03278,0.94015 1.38606,1.52749 1.7027,2.83083 0.139,0.57215 0.27688,1.41356 0.30639,1.8698 0.0786,1.21551 0.19816,1.15022 -2.10596,1.15022 -1.67438,0 -1.88304,-0.0154 -2.00021,-0.14743 -0.0968,-0.10911 -0.13875,-0.38995 -0.16133,-1.08055 l -0.0305,-0.93312 -0.45912,-0.56587 c -0.25251,-0.31123 -0.64128,-0.67796 -0.86394,-0.81496 -0.36374,-0.22382 -0.47629,-0.24909 -1.10915,-0.24909 -0.57349,0 -0.79628,0.0404 -1.19923,0.21764 -0.62629,0.27542 -0.8338,0.46873 -1.12295,1.04603 -0.20634,0.41199 -0.25233,0.66879 -0.4149,2.31674 -0.17237,1.74731 -0.17788,2.02907 -0.0962,4.92294 0.0977,3.46197 0.20245,4.37346 0.59116,5.14348 0.21763,0.43112 0.32151,0.5363 0.78658,0.79638 0.50555,0.28272 0.57956,0.29965 1.30941,0.29965 0.68757,0 0.82716,-0.0272 1.25558,-0.2451 1.02278,-0.5201 1.36658,-1.17577 1.36658,-2.60624 0,-0.59667 0.0361,-0.95445 0.1053,-1.04463 0.0891,-0.11599 0.38481,-0.14547 1.91657,-0.19107 l 1.81127,-0.0539 0.24198,0.20054 0.24199,0.20054 -0.1395,1.22628 c -0.16941,1.48936 -0.40228,2.15361 -1.16855,3.33321 -0.66139,1.01815 -1.215,1.52383 -2.15517,1.96857 -1.1277,0.53345 -2.15571,0.75297 -3.44979,0.73664 -0.58782,-0.007 -1.20145,-0.0271 -1.36362,-0.0438 z"
         id="path21833" /><path
         style="fill:#392417;fill-opacity:1;stroke-width:0.084245"
         d="m 213.52354,136.15793 c -0.0695,-0.029 -0.19271,-0.11043 -0.2738,-0.18107 -0.13889,-0.12099 -0.14743,-0.72012 -0.14743,-10.34709 v -10.21866 l 0.37322,-0.25678 0.37322,-0.25678 h 1.4545 1.4545 l 0.23628,0.22637 0.23628,0.22638 0.003,3.92269 c 0.002,3.16273 0.0247,3.95178 0.11659,4.07284 0.10688,0.14089 0.1262,0.13544 0.31324,-0.0884 0.10963,-0.13119 1.22291,-2.01256 2.47395,-4.18082 1.6968,-2.94085 2.3324,-3.97237 2.5021,-4.06069 0.17429,-0.0907 0.64089,-0.11839 1.99508,-0.11839 h 1.76759 l 0.17317,0.24319 c 0.15009,0.21079 0.1602,0.2804 0.0759,0.52234 -0.11518,0.33041 -1.57738,2.70719 -2.97558,4.83676 -1.25136,1.90592 -1.89545,2.96353 -1.89545,3.11239 0,0.14259 1.23005,2.73985 3.73518,7.8869 1.05008,2.15749 1.90923,4.0164 1.90923,4.1309 0,0.1418 -0.0803,0.25561 -0.25176,0.35691 -0.21338,0.12604 -0.53776,0.15528 -2.12719,0.19176 -1.75669,0.0403 -1.88694,0.0329 -2.0575,-0.11695 -0.20818,-0.18293 -0.8923,-1.52165 -1.83925,-3.59913 -0.35904,-0.78769 -0.99385,-2.11356 -1.41069,-2.94638 l -0.75789,-1.51423 -0.87129,0.92451 -0.87129,0.92451 -0.003,3.03361 c -0.003,3.02482 -0.004,3.03395 -0.18718,3.1484 -0.13315,0.0832 -0.62639,0.12342 -1.7902,0.14615 -0.88353,0.0173 -1.66328,0.008 -1.73278,-0.0213 z"
         id="path21835" /><path
         style="fill:#392417;fill-opacity:1;stroke-width:0.084245"
         d="m 184.03399,153.57264 c -0.3496,-0.12918 -0.83424,-0.37756 -1.07696,-0.55193 -0.53249,-0.38256 -1.10203,-1.16798 -1.34565,-1.85571 -0.26054,-0.7355 -0.52223,-2.73547 -0.52172,-3.98732 0.001,-2.79252 0.93648,-4.65341 2.76311,-5.49732 0.71211,-0.32899 0.717,-0.32989 1.78581,-0.32989 h 1.07174 l 0.71631,0.33567 c 0.58824,0.27566 0.80028,0.43132 1.186,0.87066 0.54197,0.61732 0.85269,1.25744 0.93668,1.92973 0.0966,0.77284 0.029,0.82345 -1.0986,0.82345 -0.65031,0 -0.96362,-0.0323 -1.02094,-0.10531 -0.0455,-0.0579 -0.17334,-0.34684 -0.28411,-0.64205 -0.17148,-0.457 -0.26382,-0.57904 -0.62151,-0.82139 -0.37858,-0.25651 -0.47848,-0.2846 -1.01094,-0.28428 -0.51186,3.1e-4 -0.64045,0.0333 -0.96198,0.24659 -0.88888,0.5897 -1.13498,1.6104 -1.04952,4.35275 l 0.0549,1.76079 0.36172,0.71609 c 0.30675,0.60725 0.42639,0.75769 0.78722,0.98987 0.30094,0.19365 0.52526,0.2738 0.76626,0.2738 0.84873,0 1.76733,-0.87736 1.76733,-1.68799 0,-0.21144 0.0455,-0.42993 0.10109,-0.48553 0.0646,-0.0646 0.39338,-0.10109 0.91093,-0.10109 0.77881,0 0.81858,0.009 1.03798,0.23812 0.22341,0.23319 0.22641,0.25034 0.14477,0.82601 -0.18225,1.28505 -0.93853,2.32581 -2.0692,2.84757 -0.53355,0.2462 -0.69202,0.27737 -1.64278,0.32304 -1.00685,0.0484 -1.0797,0.0404 -1.68791,-0.18433 z"
         id="path21837" /><path
         style="fill:#392417;fill-opacity:1;stroke-width:0.084245"
         d="m 195.82881,153.58044 c -0.77548,-0.27481 -1.31149,-0.67671 -1.84838,-1.38593 -0.74471,-0.98374 -1.00881,-2.27598 -1.01115,-4.94749 -0.001,-1.55821 0.018,-1.79851 0.19741,-2.45063 0.39752,-1.44485 1.23348,-2.55842 2.33725,-3.11338 l 0.6614,-0.33254 h 1.38901 1.38901 l 0.53469,0.2939 c 0.64214,0.35296 1.35799,1.12837 1.7396,1.88433 0.62585,1.2398 0.89234,4.56722 0.51857,6.47495 -0.28515,1.45542 -0.87044,2.41481 -1.86037,3.0495 -1.20865,0.77492 -2.77308,0.97875 -4.04704,0.52729 z m 2.61488,-2.15661 c 0.89224,-0.62863 1.12246,-1.62565 1.08104,-4.68169 l -0.028,-2.064 -0.23823,-0.3977 c -0.13103,-0.21874 -0.3944,-0.51254 -0.58525,-0.6529 -0.32682,-0.24034 -0.39141,-0.25506 -1.10969,-0.25285 -0.71045,0.002 -0.7849,0.0192 -1.08739,0.24811 -0.86464,0.6544 -1.11331,1.422 -1.19921,3.70177 -0.0503,1.33381 -0.0376,1.5656 0.12697,2.32402 0.33244,1.5321 0.97796,2.17012 2.10874,2.08424 0.44362,-0.0337 0.62628,-0.0943 0.931,-0.309 z"
         id="path21839" /><path
         style="fill:#392417;fill-opacity:1;stroke-width:0.084245"
         d="m 204.47606,153.76953 c -0.4614,-0.16724 -0.53885,-0.25091 -0.68515,-0.74017 -0.20498,-0.68548 -0.0982,-1.25716 0.31942,-1.71023 0.32041,-0.3476 0.35862,-0.36474 0.81306,-0.36474 0.45786,0 0.49264,0.016 0.87384,0.40306 l 0.397,0.40306 v 0.67458 0.67459 l -0.35805,0.34416 c -0.41972,0.40346 -0.84539,0.50225 -1.36012,0.31569 z"
         id="path21841" /></g></g></svg>
