<?xml version="1.0" encoding="UTF-8" standalone="no"?>
<!-- Created with Inkscape (http://www.inkscape.org/) -->

<svg
   width="180"
   height="180"
   viewBox="0 0 180 180"
   version="1.1"
   id="svg5"
   xml:space="preserve"
   xmlns="http://www.w3.org/2000/svg"
   xmlns:svg="http://www.w3.org/2000/svg"><defs
     id="defs2" /><g
     id="layer1"><path
       style="fill:#c1631a;fill-opacity:1;stroke-width:0.733392"
       d="m 75.28445,94.120187 c -1.846322,-2.641202 -3.356961,-5.593339 -3.356961,-6.560304 0,-2.727074 2.88384,-21.695547 3.441469,-22.636227 0.273014,-0.460576 3.787707,-4.532504 7.810408,-9.048729 6.589346,-7.397767 7.447836,-8.11758 8.664817,-7.265175 1.524459,1.067775 8.242397,8.610402 9.784607,10.985762 0.55605,0.85644 2.0731,7.788459 3.37121,15.404486 2.64173,15.498909 2.68533,15.111895 -2.397,21.277637 l -2.18001,2.644735 H 89.532206 78.641421 Z"
       id="path12243" /><path
       style="fill:#a75913;fill-opacity:1;stroke-width:0.259294"
       d="m 80.142005,118.33892 c -2.439861,-0.50081 -4.062147,-1.31314 -4.058034,-2.03197 0.0098,-1.67589 6.252194,-3.69001 12.313226,-3.97276 5.90008,-0.27524 12.708793,1.1462 14.844543,3.09907 1.14942,1.05101 0.54842,1.75663 -2.26882,2.66379 -1.227998,0.39541 -2.650853,0.46939 -10.24209,0.53249 -6.787755,0.0564 -9.223829,-0.0105 -10.588825,-0.29062 z"
       id="path18775" /><path
       style="fill:#c06219;fill-opacity:1;stroke-width:0.259294"
       d="m 78.18199,98.356852 c -0.974676,-0.820135 -5.943716,-7.924951 -6.45761,-9.233188 -0.33934,-0.863877 -0.309349,-1.412031 0.319197,-5.834339 1.838497,-12.935233 2.570464,-17.378146 3.004138,-18.234488 0.692793,-1.367987 8.346012,-10.148226 13.178224,-15.118855 1.919154,-1.974127 2.309866,-2.263174 2.881152,-2.131453 0.363922,0.08391 1.7113,1.226695 2.998404,2.54313 2.742398,2.804867 7.840395,8.794358 8.343105,9.802067 0.34614,0.693856 5.00665,27.11346 5.00665,28.381819 0,0.362022 -0.23774,1.124213 -0.52829,1.693753 -0.96504,1.891638 -3.78163,6.055115 -5.03022,7.435667 l -1.23117,1.36129 H 89.819171 78.972773 Z"
       id="path19329" /><path
       style="fill:#773d04;fill-opacity:1;stroke-width:0.259294"
       d="m 52.160964,112.87578 c -1.379654,-0.74847 -0.743034,-1.45974 3.176333,-3.54879 5.806071,-3.09468 13.527944,-5.33734 22.558522,-6.55165 4.125208,-0.55471 14.783241,-0.7783 19.42181,-0.40745 10.580721,0.84593 18.908101,2.91836 26.161891,6.51091 5.05349,2.50282 5.72028,3.12871 4.31445,4.04984 -0.5852,0.38344 -1.20538,0.41467 -5.22421,0.26305 l -4.56019,-0.17203 -3.00834,-1.12887 c -14.60366,-5.47995 -36.753536,-5.3287 -50.696372,0.34617 l -2.570987,1.04643 -4.429932,-0.0104 c -3.42014,-0.008 -4.592463,-0.0985 -5.142975,-0.39722 z"
       id="path20573" /></g></svg>
